<svg xmlns="http://www.w3.org/2000/svg" xmlns:xlink="http://www.w3.org/1999/xlink" width="1024" zoomAndPan="magnify" viewBox="0 0 768 767.999994" height="1024" preserveAspectRatio="xMidYMid meet" version="1.0"><defs><g/><clipPath id="825c881be1"><path d="M 110.992188 112 L 656.992188 112 L 656.992188 656 L 110.992188 656 Z M 110.992188 112 " clip-rule="nonzero"/></clipPath></defs><g clip-path="url(#825c881be1)"><path fill="#3b3b3c" d="M 588.378906 112.058594 L 179.46875 112.058594 C 141.886719 112.058594 110.992188 142.910156 110.992188 180.316406 L 110.992188 587.351562 C 110.992188 624.765625 141.886719 655.9375 179.46875 655.9375 L 382.933594 655.9375 L 382.933594 468.246094 L 315.746094 468.246094 L 315.746094 385.066406 L 382.933594 385.066406 L 382.933594 315.996094 C 382.933594 259.789062 429.691406 215.503906 486.152344 215.503906 L 555.695312 215.503906 L 555.695312 299.75 L 520.226562 299.75 C 501.421875 299.75 486.375 297.269531 486.375 315.996094 L 486.375 385.066406 L 571.34375 385.066406 L 537.265625 468.246094 L 486.375 468.246094 L 486.375 655.9375 L 588.378906 655.9375 C 625.96875 655.9375 657.003906 624.765625 657.003906 587.351562 L 657.003906 180.316406 C 657.003906 142.910156 625.96875 112.058594 588.378906 112.058594 Z M 588.378906 112.058594 " fill-opacity="1" fill-rule="nonzero"/></g><g fill="#3b3b3c" fill-opacity="1"><g transform="translate(239.65754, 283.625015)"><g><path d="M 5.1875 -22.4375 C 5.082031 -20.375 4.992188 -18.328125 4.921875 -16.296875 C 4.847656 -14.273438 4.796875 -12.242188 4.765625 -10.203125 C 5.023438 -10.179688 5.285156 -10.171875 5.546875 -10.171875 C 5.816406 -10.171875 6.082031 -10.171875 6.34375 -10.171875 C 6.675781 -10.171875 7.015625 -10.175781 7.359375 -10.1875 C 7.710938 -10.195312 8.066406 -10.210938 8.421875 -10.234375 C 8.441406 -10.691406 8.453125 -11.140625 8.453125 -11.578125 C 8.453125 -12.023438 8.453125 -12.484375 8.453125 -12.953125 C 8.453125 -14.535156 8.4375 -16.113281 8.40625 -17.6875 C 8.375 -19.257812 8.320312 -20.84375 8.25 -22.4375 L 12.09375 -22.4375 C 11.90625 -19.925781 11.757812 -17.429688 11.65625 -14.953125 C 11.5625 -12.484375 11.515625 -9.992188 11.515625 -7.484375 C 11.515625 -6.253906 11.53125 -5.03125 11.5625 -3.8125 C 11.59375 -2.59375 11.632812 -1.363281 11.6875 -0.125 L 8.125 -0.125 C 8.175781 -1.363281 8.222656 -2.597656 8.265625 -3.828125 C 8.304688 -5.054688 8.347656 -6.285156 8.390625 -7.515625 C 7.796875 -7.546875 7.203125 -7.570312 6.609375 -7.59375 C 6.023438 -7.625 5.441406 -7.640625 4.859375 -7.640625 L 4.734375 -7.640625 L 4.734375 -4.421875 C 4.734375 -3.691406 4.734375 -2.972656 4.734375 -2.265625 C 4.734375 -1.554688 4.742188 -0.84375 4.765625 -0.125 L 1.1875 -0.125 C 1.238281 -1.625 1.269531 -3.101562 1.28125 -4.5625 C 1.300781 -6.03125 1.3125 -7.503906 1.3125 -8.984375 C 1.3125 -13.460938 1.21875 -17.945312 1.03125 -22.4375 Z M 5.1875 -22.4375 "/></g></g></g><g fill="#3b3b3c" fill-opacity="1"><g transform="translate(252.482533, 283.625015)"><g><path d="M 9.828125 -0.421875 C 8.859375 -0.0859375 7.972656 0.128906 7.171875 0.234375 C 6.378906 0.335938 5.726562 0.390625 5.21875 0.390625 C 4.582031 0.390625 4.023438 0.265625 3.546875 0.015625 C 3.066406 -0.234375 2.648438 -0.566406 2.296875 -0.984375 C 1.953125 -1.398438 1.664062 -1.878906 1.4375 -2.421875 C 1.207031 -2.972656 1.023438 -3.550781 0.890625 -4.15625 C 0.753906 -4.757812 0.65625 -5.367188 0.59375 -5.984375 C 0.539062 -6.609375 0.515625 -7.195312 0.515625 -7.75 C 0.515625 -9.125 0.625 -10.390625 0.84375 -11.546875 C 1.0625 -12.710938 1.378906 -13.71875 1.796875 -14.5625 C 2.210938 -15.40625 2.726562 -16.0625 3.34375 -16.53125 C 3.957031 -17.007812 4.65625 -17.25 5.4375 -17.25 C 6.082031 -17.25 6.671875 -17.085938 7.203125 -16.765625 C 7.734375 -16.441406 8.1875 -15.945312 8.5625 -15.28125 C 8.9375 -14.613281 9.222656 -13.765625 9.421875 -12.734375 C 9.628906 -11.710938 9.734375 -10.5 9.734375 -9.09375 C 9.734375 -8.695312 9.722656 -8.296875 9.703125 -7.890625 C 9.691406 -7.484375 9.664062 -7.0625 9.625 -6.625 L 4.09375 -5.890625 C 4.132812 -5.503906 4.195312 -5.140625 4.28125 -4.796875 C 4.375 -4.453125 4.492188 -4.144531 4.640625 -3.875 C 4.796875 -3.613281 4.976562 -3.40625 5.1875 -3.25 C 5.394531 -3.09375 5.648438 -3.015625 5.953125 -3.015625 C 6.515625 -3.015625 7.078125 -3.046875 7.640625 -3.109375 C 8.203125 -3.179688 8.789062 -3.265625 9.40625 -3.359375 Z M 4 -8.546875 L 6.59375 -9.03125 L 6.59375 -9.625 C 6.59375 -10.507812 6.523438 -11.191406 6.390625 -11.671875 C 6.253906 -12.160156 6.109375 -12.519531 5.953125 -12.75 C 5.765625 -13.019531 5.550781 -13.175781 5.3125 -13.21875 C 5.007812 -13.1875 4.769531 -13.046875 4.59375 -12.796875 C 4.414062 -12.546875 4.28125 -12.222656 4.1875 -11.828125 C 4.101562 -11.441406 4.050781 -11.003906 4.03125 -10.515625 C 4.007812 -10.023438 4 -9.53125 4 -9.03125 Z M 4 -8.546875 "/></g></g></g><g fill="#3b3b3c" fill-opacity="1"><g transform="translate(262.854999, 283.625015)"><g><path d="M 10.203125 -9.953125 C 10.203125 -8.304688 10.191406 -6.660156 10.171875 -5.015625 C 10.160156 -3.367188 10.128906 -1.65625 10.078125 0.125 L 7.359375 -0.03125 L 7.359375 -2.140625 C 7.046875 -1.578125 6.691406 -1.144531 6.296875 -0.84375 C 5.898438 -0.550781 5.523438 -0.332031 5.171875 -0.1875 C 4.753906 -0.0195312 4.34375 0.0703125 3.9375 0.09375 C 3.4375 0.09375 2.96875 -0.015625 2.53125 -0.234375 C 2.09375 -0.460938 1.710938 -0.765625 1.390625 -1.140625 C 1.066406 -1.515625 0.8125 -1.941406 0.625 -2.421875 C 0.445312 -2.910156 0.359375 -3.414062 0.359375 -3.9375 C 0.359375 -4.53125 0.484375 -5.113281 0.734375 -5.6875 C 0.992188 -6.269531 1.429688 -6.796875 2.046875 -7.265625 C 2.867188 -7.898438 3.582031 -8.429688 4.1875 -8.859375 C 4.789062 -9.285156 5.289062 -9.671875 5.6875 -10.015625 C 6.09375 -10.367188 6.390625 -10.703125 6.578125 -11.015625 C 6.773438 -11.335938 6.875 -11.707031 6.875 -12.125 C 6.875 -12.8125 6.757812 -13.320312 6.53125 -13.65625 C 6.300781 -14 6 -14.171875 5.625 -14.171875 C 5.394531 -14.171875 5.195312 -14.109375 5.03125 -13.984375 C 4.875 -13.867188 4.742188 -13.710938 4.640625 -13.515625 C 4.546875 -13.328125 4.472656 -13.113281 4.421875 -12.875 C 4.378906 -12.644531 4.359375 -12.414062 4.359375 -12.1875 C 4.359375 -12.03125 4.363281 -11.859375 4.375 -11.671875 C 4.394531 -11.484375 4.429688 -11.285156 4.484375 -11.078125 L 0.890625 -11.015625 C 0.867188 -11.191406 0.851562 -11.359375 0.84375 -11.515625 C 0.832031 -11.679688 0.828125 -11.84375 0.828125 -12 C 0.828125 -12.644531 0.9375 -13.28125 1.15625 -13.90625 C 1.375 -14.539062 1.691406 -15.101562 2.109375 -15.59375 C 2.535156 -16.09375 3.050781 -16.492188 3.65625 -16.796875 C 4.257812 -17.097656 4.953125 -17.25 5.734375 -17.25 C 6.742188 -17.25 7.539062 -17.035156 8.125 -16.609375 C 8.71875 -16.191406 9.164062 -15.640625 9.46875 -14.953125 C 9.78125 -14.265625 9.976562 -13.484375 10.0625 -12.609375 C 10.15625 -11.742188 10.203125 -10.859375 10.203125 -9.953125 Z M 6.6875 -5.53125 C 6.738281 -5.789062 6.785156 -6.085938 6.828125 -6.421875 C 6.867188 -6.703125 6.90625 -7.039062 6.9375 -7.4375 C 6.96875 -7.84375 6.992188 -8.296875 7.015625 -8.796875 C 6.847656 -8.566406 6.6875 -8.363281 6.53125 -8.1875 C 6.375 -8.007812 6.226562 -7.851562 6.09375 -7.71875 C 5.9375 -7.5625 5.789062 -7.421875 5.65625 -7.296875 C 5.414062 -7.097656 5.160156 -6.875 4.890625 -6.625 C 4.617188 -6.382812 4.367188 -6.128906 4.140625 -5.859375 C 3.921875 -5.585938 3.734375 -5.304688 3.578125 -5.015625 C 3.429688 -4.734375 3.359375 -4.457031 3.359375 -4.1875 C 3.359375 -3.894531 3.457031 -3.625 3.65625 -3.375 C 3.851562 -3.132812 4.097656 -3.015625 4.390625 -3.015625 C 4.609375 -3.015625 4.832031 -3.078125 5.0625 -3.203125 C 5.300781 -3.328125 5.523438 -3.503906 5.734375 -3.734375 C 5.953125 -3.960938 6.144531 -4.226562 6.3125 -4.53125 C 6.476562 -4.832031 6.601562 -5.164062 6.6875 -5.53125 Z M 6.6875 -5.53125 "/></g></g></g><g fill="#3b3b3c" fill-opacity="1"><g transform="translate(273.961661, 283.625015)"><g><path d="M 10.65625 -22.265625 L 10.265625 0.1875 L 7.265625 0.1875 L 7.265625 -1.40625 C 6.960938 -0.957031 6.671875 -0.609375 6.390625 -0.359375 C 6.109375 -0.117188 5.859375 0.0546875 5.640625 0.171875 C 5.378906 0.304688 5.140625 0.390625 4.921875 0.421875 C 4.390625 0.421875 3.863281 0.265625 3.34375 -0.046875 C 2.820312 -0.367188 2.351562 -0.898438 1.9375 -1.640625 C 1.53125 -2.378906 1.195312 -3.347656 0.9375 -4.546875 C 0.675781 -5.753906 0.546875 -7.25 0.546875 -9.03125 C 0.546875 -10.394531 0.65625 -11.59375 0.875 -12.625 C 1.101562 -13.664062 1.40625 -14.535156 1.78125 -15.234375 C 2.15625 -15.929688 2.585938 -16.457031 3.078125 -16.8125 C 3.566406 -17.164062 4.078125 -17.34375 4.609375 -17.34375 C 4.890625 -17.320312 5.171875 -17.25 5.453125 -17.125 C 5.691406 -17.007812 5.957031 -16.835938 6.25 -16.609375 C 6.539062 -16.378906 6.816406 -16.054688 7.078125 -15.640625 L 6.875 -22.109375 Z M 7.359375 -7.546875 C 7.335938 -8.253906 7.3125 -8.976562 7.28125 -9.71875 C 7.257812 -10.457031 7.191406 -11.128906 7.078125 -11.734375 C 6.960938 -12.347656 6.785156 -12.847656 6.546875 -13.234375 C 6.316406 -13.628906 5.988281 -13.828125 5.5625 -13.828125 C 5.164062 -13.828125 4.851562 -13.664062 4.625 -13.34375 C 4.40625 -13.019531 4.238281 -12.601562 4.125 -12.09375 C 4.019531 -11.582031 3.957031 -11.019531 3.9375 -10.40625 C 3.914062 -9.789062 3.90625 -9.191406 3.90625 -8.609375 C 3.90625 -8.203125 3.910156 -7.773438 3.921875 -7.328125 C 3.941406 -6.878906 3.972656 -6.429688 4.015625 -5.984375 C 4.054688 -5.546875 4.117188 -5.128906 4.203125 -4.734375 C 4.285156 -4.335938 4.390625 -3.984375 4.515625 -3.671875 C 4.640625 -3.367188 4.789062 -3.128906 4.96875 -2.953125 C 5.15625 -2.773438 5.375 -2.6875 5.625 -2.6875 C 5.9375 -2.6875 6.203125 -2.8125 6.421875 -3.0625 C 6.640625 -3.320312 6.816406 -3.671875 6.953125 -4.109375 C 7.097656 -4.546875 7.203125 -5.054688 7.265625 -5.640625 C 7.328125 -6.234375 7.359375 -6.867188 7.359375 -7.546875 Z M 7.359375 -7.546875 "/></g></g></g><g fill="#3b3b3c" fill-opacity="1"><g transform="translate(285.443232, 283.625015)"><g><path d="M 5.734375 -20.765625 C 5.734375 -20.441406 5.679688 -20.140625 5.578125 -19.859375 C 5.472656 -19.585938 5.316406 -19.347656 5.109375 -19.140625 C 4.898438 -18.941406 4.632812 -18.785156 4.3125 -18.671875 C 4 -18.554688 3.628906 -18.5 3.203125 -18.5 C 2.734375 -18.5 2.335938 -18.554688 2.015625 -18.671875 C 1.703125 -18.785156 1.441406 -18.941406 1.234375 -19.140625 C 1.035156 -19.347656 0.890625 -19.585938 0.796875 -19.859375 C 0.710938 -20.140625 0.671875 -20.441406 0.671875 -20.765625 C 0.671875 -21.078125 0.71875 -21.367188 0.8125 -21.640625 C 0.90625 -21.921875 1.050781 -22.164062 1.25 -22.375 C 1.457031 -22.582031 1.722656 -22.742188 2.046875 -22.859375 C 2.367188 -22.984375 2.753906 -23.046875 3.203125 -23.046875 C 3.648438 -23.046875 4.03125 -22.984375 4.34375 -22.859375 C 4.664062 -22.742188 4.925781 -22.582031 5.125 -22.375 C 5.332031 -22.164062 5.484375 -21.921875 5.578125 -21.640625 C 5.679688 -21.367188 5.734375 -21.078125 5.734375 -20.765625 Z M 4.796875 -16.21875 C 4.734375 -15.644531 4.679688 -15.03125 4.640625 -14.375 C 4.597656 -13.71875 4.5625 -13.035156 4.53125 -12.328125 C 4.5 -11.628906 4.476562 -10.914062 4.46875 -10.1875 C 4.457031 -9.46875 4.453125 -8.757812 4.453125 -8.0625 C 4.453125 -7.25 4.457031 -6.460938 4.46875 -5.703125 C 4.488281 -4.953125 4.507812 -4.257812 4.53125 -3.625 C 4.5625 -2.988281 4.59375 -2.425781 4.625 -1.9375 C 4.664062 -1.445312 4.710938 -1.066406 4.765625 -0.796875 C 4.347656 -0.796875 3.914062 -0.785156 3.46875 -0.765625 C 3.082031 -0.742188 2.648438 -0.71875 2.171875 -0.6875 C 1.691406 -0.65625 1.210938 -0.609375 0.734375 -0.546875 C 0.910156 -2.421875 1.03125 -4.132812 1.09375 -5.6875 C 1.15625 -7.25 1.1875 -8.648438 1.1875 -9.890625 C 1.1875 -10.953125 1.164062 -11.878906 1.125 -12.671875 C 1.09375 -13.472656 1.054688 -14.148438 1.015625 -14.703125 C 0.972656 -15.347656 0.921875 -15.898438 0.859375 -16.359375 C 1.441406 -16.285156 1.972656 -16.238281 2.453125 -16.21875 C 2.941406 -16.195312 3.363281 -16.1875 3.71875 -16.1875 C 3.882812 -16.1875 4.035156 -16.1875 4.171875 -16.1875 C 4.304688 -16.1875 4.421875 -16.191406 4.515625 -16.203125 C 4.628906 -16.203125 4.722656 -16.207031 4.796875 -16.21875 Z M 4.796875 -16.21875 "/></g></g></g><g fill="#3b3b3c" fill-opacity="1"><g transform="translate(291.035616, 283.625015)"><g><path d="M 7.265625 -0.09375 C 7.492188 -1.769531 7.65625 -3.46875 7.75 -5.1875 C 7.851562 -6.90625 7.90625 -8.707031 7.90625 -10.59375 C 7.90625 -11.226562 7.863281 -11.734375 7.78125 -12.109375 C 7.695312 -12.492188 7.585938 -12.785156 7.453125 -12.984375 C 7.316406 -13.191406 7.171875 -13.320312 7.015625 -13.375 C 6.859375 -13.4375 6.707031 -13.46875 6.5625 -13.46875 C 6.351562 -13.46875 6.15625 -13.429688 5.96875 -13.359375 C 5.789062 -13.285156 5.625 -13.144531 5.46875 -12.9375 C 5.3125 -12.726562 5.164062 -12.4375 5.03125 -12.0625 C 4.90625 -11.6875 4.796875 -11.191406 4.703125 -10.578125 C 4.609375 -9.960938 4.535156 -9.210938 4.484375 -8.328125 C 4.441406 -7.453125 4.421875 -6.40625 4.421875 -5.1875 C 4.421875 -4.75 4.421875 -4.289062 4.421875 -3.8125 C 4.421875 -3.34375 4.421875 -2.894531 4.421875 -2.46875 C 4.429688 -2.039062 4.4375 -1.660156 4.4375 -1.328125 C 4.445312 -1.003906 4.460938 -0.773438 4.484375 -0.640625 L 0.953125 -0.671875 C 0.984375 -1.617188 1.003906 -2.460938 1.015625 -3.203125 C 1.035156 -3.953125 1.050781 -4.640625 1.0625 -5.265625 C 1.070312 -5.890625 1.078125 -6.472656 1.078125 -7.015625 C 1.085938 -7.566406 1.09375 -8.109375 1.09375 -8.640625 C 1.09375 -9.117188 1.085938 -9.609375 1.078125 -10.109375 C 1.078125 -10.617188 1.070312 -11.164062 1.0625 -11.75 C 1.0625 -12.332031 1.050781 -12.96875 1.03125 -13.65625 C 1.019531 -14.351562 1.003906 -15.125 0.984375 -15.96875 L 4.640625 -16.0625 L 4.578125 -14.46875 C 4.859375 -15 5.160156 -15.421875 5.484375 -15.734375 C 5.804688 -16.054688 6.125 -16.304688 6.4375 -16.484375 C 6.757812 -16.660156 7.070312 -16.773438 7.375 -16.828125 C 7.675781 -16.890625 7.945312 -16.921875 8.1875 -16.921875 C 8.832031 -16.921875 9.363281 -16.695312 9.78125 -16.25 C 10.195312 -15.800781 10.523438 -15.203125 10.765625 -14.453125 C 11.015625 -13.710938 11.1875 -12.863281 11.28125 -11.90625 C 11.375 -10.945312 11.421875 -9.953125 11.421875 -8.921875 C 11.421875 -8.171875 11.398438 -7.410156 11.359375 -6.640625 C 11.328125 -5.867188 11.285156 -5.109375 11.234375 -4.359375 C 11.191406 -3.617188 11.140625 -2.898438 11.078125 -2.203125 C 11.023438 -1.515625 10.976562 -0.875 10.9375 -0.28125 Z M 7.265625 -0.09375 "/></g></g></g><g fill="#3b3b3c" fill-opacity="1"><g transform="translate(303.282625, 283.625015)"><g><path d="M 10.78125 -4.1875 C 10.738281 -2.957031 10.695312 -1.867188 10.65625 -0.921875 C 10.613281 0.015625 10.53125 0.835938 10.40625 1.546875 C 10.28125 2.253906 10.09375 2.847656 9.84375 3.328125 C 9.59375 3.804688 9.242188 4.191406 8.796875 4.484375 C 8.359375 4.773438 7.796875 4.984375 7.109375 5.109375 C 6.429688 5.242188 5.597656 5.3125 4.609375 5.3125 C 4.117188 5.3125 3.59375 5.289062 3.03125 5.25 C 2.46875 5.21875 1.863281 5.144531 1.21875 5.03125 L 1.34375 1.59375 C 2.113281 1.644531 2.789062 1.6875 3.375 1.71875 C 3.96875 1.75 4.460938 1.773438 4.859375 1.796875 C 5.328125 1.828125 5.734375 1.847656 6.078125 1.859375 C 6.578125 1.859375 6.953125 1.566406 7.203125 0.984375 C 7.460938 0.398438 7.609375 -0.40625 7.640625 -1.4375 C 7.453125 -1.019531 7.238281 -0.679688 7 -0.421875 C 6.769531 -0.160156 6.53125 0.0390625 6.28125 0.1875 C 6.039062 0.34375 5.800781 0.445312 5.5625 0.5 C 5.332031 0.550781 5.117188 0.578125 4.921875 0.578125 C 4.390625 0.578125 3.863281 0.414062 3.34375 0.09375 C 2.820312 -0.226562 2.351562 -0.757812 1.9375 -1.5 C 1.53125 -2.25 1.195312 -3.222656 0.9375 -4.421875 C 0.675781 -5.628906 0.546875 -7.117188 0.546875 -8.890625 C 0.546875 -10.265625 0.65625 -11.472656 0.875 -12.515625 C 1.101562 -13.554688 1.40625 -14.429688 1.78125 -15.140625 C 2.15625 -15.847656 2.585938 -16.378906 3.078125 -16.734375 C 3.566406 -17.097656 4.078125 -17.28125 4.609375 -17.28125 C 4.859375 -17.28125 5.125 -17.238281 5.40625 -17.15625 C 5.695312 -17.070312 5.988281 -16.921875 6.28125 -16.703125 C 6.570312 -16.492188 6.847656 -16.207031 7.109375 -15.84375 C 7.378906 -15.488281 7.613281 -15.03125 7.8125 -14.46875 L 7.78125 -16.390625 L 10.5625 -16.25 Z M 7.359375 -7.390625 C 7.359375 -7.710938 7.351562 -8.09375 7.34375 -8.53125 C 7.34375 -8.976562 7.328125 -9.4375 7.296875 -9.90625 C 7.273438 -10.382812 7.226562 -10.851562 7.15625 -11.3125 C 7.082031 -11.769531 6.976562 -12.179688 6.84375 -12.546875 C 6.71875 -12.910156 6.550781 -13.203125 6.34375 -13.421875 C 6.132812 -13.648438 5.875 -13.765625 5.5625 -13.765625 C 5.164062 -13.765625 4.851562 -13.597656 4.625 -13.265625 C 4.40625 -12.929688 4.238281 -12.503906 4.125 -11.984375 C 4.019531 -11.460938 3.957031 -10.890625 3.9375 -10.265625 C 3.914062 -9.640625 3.90625 -9.035156 3.90625 -8.453125 C 3.90625 -8.046875 3.910156 -7.617188 3.921875 -7.171875 C 3.941406 -6.722656 3.972656 -6.273438 4.015625 -5.828125 C 4.054688 -5.390625 4.117188 -4.972656 4.203125 -4.578125 C 4.285156 -4.179688 4.390625 -3.828125 4.515625 -3.515625 C 4.640625 -3.210938 4.789062 -2.972656 4.96875 -2.796875 C 5.15625 -2.617188 5.375 -2.53125 5.625 -2.53125 C 5.9375 -2.53125 6.203125 -2.65625 6.421875 -2.90625 C 6.640625 -3.164062 6.816406 -3.515625 6.953125 -3.953125 C 7.097656 -4.390625 7.203125 -4.898438 7.265625 -5.484375 C 7.328125 -6.078125 7.359375 -6.710938 7.359375 -7.390625 Z M 7.359375 -7.390625 "/></g></g></g></svg>